<svg width="153" height="168" viewBox="0 0 153 168" fill="none" xmlns="http://www.w3.org/2000/svg">
<path d="M53.424 61.032C59.184 61.032 64.08 61.848 68.112 63.48C72.144 65.112 76.08 67.416 79.92 70.392C80.976 71.256 81.888 71.688 82.656 71.688C84.576 71.688 85.824 68.808 86.4 63.048H89.712C89.328 69.288 89.136 80.328 89.136 96.168H85.824C84.768 89.928 83.808 85.464 82.944 82.776C82.08 79.992 80.64 77.352 78.624 74.856C75.744 71.112 72.048 68.328 67.536 66.504C63.12 64.584 58.32 63.624 53.136 63.624C46.896 63.624 41.424 65.688 36.72 69.816C32.112 73.944 28.512 79.848 25.92 87.528C23.328 95.112 22.032 104.04 22.032 114.312C22.032 124.776 23.424 133.752 26.208 141.24C28.992 148.728 32.832 154.44 37.728 158.376C42.72 162.216 48.336 164.136 54.576 164.136C59.376 164.136 64.032 163.224 68.544 161.4C73.056 159.576 76.608 156.84 79.2 153.192C81.12 150.504 82.512 147.624 83.376 144.552C84.24 141.48 85.056 136.776 85.824 130.44H89.136C89.136 146.952 89.328 158.472 89.712 165H86.4C86.112 161.928 85.68 159.768 85.104 158.52C84.624 157.176 83.904 156.504 82.944 156.504C82.176 156.504 81.168 156.888 79.92 157.656C75.6 160.728 71.472 163.08 67.536 164.712C63.6 166.248 58.848 167.016 53.28 167.016C44.16 167.016 36.144 164.952 29.232 160.824C22.416 156.696 17.088 150.744 13.248 142.968C9.504 135.096 7.632 125.736 7.632 114.888C7.632 104.328 9.552 94.968 13.392 86.808C17.328 78.648 22.752 72.312 29.664 67.8C36.672 63.288 44.592 61.032 53.424 61.032Z" fill="#941010"/>
<path d="M83.744 91.792C86.304 91.792 88.48 92.1547 90.272 92.88C92.064 93.6053 93.8133 94.6293 95.52 95.952C95.9893 96.336 96.3947 96.528 96.736 96.528C97.5893 96.528 98.144 95.248 98.4 92.688H99.872C99.7013 95.4613 99.616 100.368 99.616 107.408H98.144C97.6747 104.635 97.248 102.651 96.864 101.456C96.48 100.219 95.84 99.0453 94.944 97.936C93.664 96.272 92.0213 95.0347 90.016 94.224C88.0533 93.3707 85.92 92.944 83.616 92.944C80.8427 92.944 78.4107 93.8613 76.32 95.696C74.272 97.5307 72.672 100.155 71.52 103.568C70.368 106.939 69.792 110.907 69.792 115.472C69.792 120.123 70.4107 124.112 71.648 127.44C72.8853 130.768 74.592 133.307 76.768 135.056C78.9867 136.763 81.4827 137.616 84.256 137.616C86.3893 137.616 88.4587 137.211 90.464 136.4C92.4693 135.589 94.048 134.373 95.2 132.752C96.0533 131.557 96.672 130.277 97.056 128.912C97.44 127.547 97.8027 125.456 98.144 122.64H99.616C99.616 129.979 99.7013 135.099 99.872 138H98.4C98.272 136.635 98.08 135.675 97.824 135.12C97.6107 134.523 97.2907 134.224 96.864 134.224C96.5227 134.224 96.0747 134.395 95.52 134.736C93.6 136.101 91.7653 137.147 90.016 137.872C88.2667 138.555 86.1547 138.896 83.68 138.896C79.6267 138.896 76.064 137.979 72.992 136.144C69.9627 134.309 67.5947 131.664 65.888 128.208C64.224 124.709 63.392 120.549 63.392 115.728C63.392 111.035 64.2453 106.875 65.952 103.248C67.7013 99.6213 70.112 96.8053 73.184 94.8C76.2987 92.7947 79.8187 91.792 83.744 91.792Z" fill="#941010"/>
<path d="M76.872 54.48C81.192 54.48 84.792 54.336 87.672 54.048V56.928C85.752 57.408 83.88 58.656 82.056 60.672C80.232 62.592 78.264 65.616 76.152 69.744L53.544 114.528V140.736C53.544 144.384 53.832 147.024 54.408 148.656C54.984 150.288 56.04 151.392 57.576 151.968C59.208 152.544 61.752 152.928 65.208 153.12V156C60.792 155.712 54.696 155.568 46.92 155.568C38.664 155.568 32.52 155.712 28.488 156V153.12C31.944 152.928 34.44 152.544 35.976 151.968C37.608 151.392 38.712 150.288 39.288 148.656C39.864 147.024 40.152 144.384 40.152 140.736V119.136L10.92 65.136C9.192 61.968 7.656 59.856 6.312 58.8C5.064 57.648 3.816 57.072 2.568 57.072V54.048C6.312 54.336 10.536 54.48 15.24 54.48C24.552 54.48 31.272 54.336 35.4 54.048V57.072C28.68 57.072 25.32 58.896 25.32 62.544C25.32 63.984 25.8 65.664 26.76 67.584L50.664 113.52L69.096 76.944C71.688 71.856 72.984 67.728 72.984 64.56C72.984 61.872 71.928 59.952 69.816 58.8C67.704 57.648 64.536 57.024 60.312 56.928V54.048C65.784 54.336 71.304 54.48 76.872 54.48Z" fill="#941010"/>
</svg>
