<svg width="98" height="117" viewBox="0 0 98 117" fill="none" xmlns="http://www.w3.org/2000/svg">
<path d="M51.424 7.84843C57.184 7.84843 62.08 8.68871 66.112 10.3693C70.144 12.0499 74.08 14.4224 77.92 17.487C78.976 18.3767 79.888 18.8216 80.656 18.8216C82.576 18.8216 83.824 15.8559 84.4 9.92443H87.712C87.328 16.3501 87.136 27.7187 87.136 44.0301H83.824C82.768 37.6044 81.808 33.0076 80.944 30.2396C80.08 27.3727 78.64 24.6541 76.624 22.0839C73.744 18.2284 70.048 15.3616 65.536 13.4833C61.12 11.5061 56.32 10.5176 51.136 10.5176C44.896 10.5176 39.424 12.643 34.72 16.8939C30.112 21.1447 26.512 27.2244 23.92 35.133C21.328 42.9427 20.032 52.1364 20.032 62.7141C20.032 73.4896 21.424 82.7327 24.208 90.4436C26.992 98.1544 30.832 104.036 35.728 108.09C40.72 112.044 46.336 114.021 52.576 114.021C57.376 114.021 62.032 113.082 66.544 111.204C71.056 109.325 74.608 106.508 77.2 102.751C79.12 99.9833 80.512 97.0176 81.376 93.8541C82.24 90.6907 83.056 85.8467 83.824 79.3222H87.136C87.136 96.3256 87.328 108.188 87.712 114.911H84.4C84.112 111.747 83.68 109.523 83.104 108.238C82.624 106.854 81.904 106.162 80.944 106.162C80.176 106.162 79.168 106.557 77.92 107.348C73.6 110.512 69.472 112.934 65.536 114.614C61.6 116.196 56.848 116.987 51.28 116.987C42.16 116.987 34.144 114.861 27.232 110.61C20.416 106.36 15.088 100.23 11.248 92.223C7.504 84.1167 5.632 74.4781 5.632 63.3073C5.632 52.433 7.552 42.7944 11.392 34.3916C15.328 25.9887 20.752 19.4641 27.664 14.8179C34.672 10.1716 42.592 7.84843 51.424 7.84843Z" fill="#941010"/>
<path d="M81.744 39.5239C84.304 39.5239 86.48 39.8974 88.272 40.6443C90.064 41.3912 91.8133 42.4457 93.52 43.8077C93.9893 44.2031 94.3947 44.4009 94.736 44.4009C95.5893 44.4009 96.144 43.0828 96.4 40.4466H97.872C97.7013 43.3024 97.616 48.3551 97.616 55.6047H96.144C95.6747 52.7491 95.248 50.7061 94.864 49.4755C94.48 48.2017 93.84 46.9931 92.944 45.8508C91.664 44.1372 90.0213 42.8631 88.016 42.0283C86.0533 41.1496 83.92 40.7102 81.616 40.7102C78.8427 40.7102 76.4107 41.6548 74.32 43.5441C72.272 45.4334 70.672 48.1358 69.52 51.6504C68.368 55.1217 67.792 59.2078 67.792 63.9087C67.792 68.6981 68.4107 72.8058 69.648 76.2329C70.8853 79.6599 72.592 82.2745 74.768 84.0755C76.9867 85.8333 79.4827 86.7117 82.256 86.7117C84.3893 86.7117 86.4587 86.2947 88.464 85.4595C90.4693 84.6244 92.048 83.3722 93.2 81.703C94.0533 80.4724 94.672 79.1543 95.056 77.7487C95.44 76.3431 95.8027 74.1898 96.144 71.29H97.616C97.616 78.8474 97.7013 84.1198 97.872 87.1072H96.4C96.272 85.7015 96.08 84.713 95.824 84.1414C95.6107 83.5267 95.2907 83.2188 94.864 83.2188C94.5227 83.2188 94.0747 83.3949 93.52 83.746C91.6 85.1516 89.7653 86.2288 88.016 86.9753C86.2667 87.6787 84.1547 88.0298 81.68 88.0298C77.6267 88.0298 74.064 87.0855 70.992 85.1959C67.9627 83.3063 65.5947 80.5826 63.888 77.0237C62.224 73.4206 61.392 69.1368 61.392 64.1723C61.392 59.3396 62.2453 55.0558 63.952 51.3209C65.7013 47.5862 68.112 44.6864 71.184 42.6214C74.2987 40.5564 77.8187 39.5239 81.744 39.5239Z" fill="#941010"/>
<path d="M74.872 1.10143C79.192 1.10143 82.792 0.953142 85.672 0.65657V3.62229C83.752 4.11657 81.88 5.40171 80.056 7.47771C78.232 9.45486 76.264 12.5689 74.152 16.8197L51.544 62.9366V89.9246C51.544 93.6811 51.832 96.3997 52.408 98.0803C52.984 99.7609 54.04 100.898 55.576 101.491C57.208 102.084 59.752 102.479 63.208 102.677V105.643C58.792 105.346 52.696 105.198 44.92 105.198C36.664 105.198 30.52 105.346 26.488 105.643V102.677C29.944 102.479 32.44 102.084 33.976 101.491C35.608 100.898 36.712 99.7609 37.288 98.0803C37.864 96.3997 38.152 93.6811 38.152 89.9246V67.6817L8.92 12.0746C7.192 8.81229 5.656 6.63743 4.312 5.55C3.064 4.36371 1.816 3.77057 0.568001 3.77057V0.65657C4.312 0.953142 8.536 1.10143 13.24 1.10143C22.552 1.10143 29.272 0.953142 33.4 0.65657V3.77057C26.68 3.77057 23.32 5.64885 23.32 9.40543C23.32 10.8883 23.8 12.6183 24.76 14.5954L48.664 61.8986L67.096 24.234C69.688 18.9946 70.984 14.7437 70.984 11.4814C70.984 8.71342 69.928 6.73628 67.816 5.55C65.704 4.36371 62.536 3.72114 58.312 3.62229V0.65657C63.784 0.953142 69.304 1.10143 74.872 1.10143Z" fill="#941010"/>
</svg>
