<svg width="52" height="101" viewBox="0 0 52 101" fill="none" xmlns="http://www.w3.org/2000/svg">
<circle cx="11" cy="28" r="10.5" fill="#C4C4C4" stroke="black"/>
<path d="M9.49994 25.5H9.58246H9.66701H9.75189H9.83709H9.92262H10.0085H10.0946H10.1811H10.2679H10.355H10.4425H10.5302H10.6183H10.7066H10.7953H10.8842H10.9735H11.063H11.1529H11.243H11.3335H11.4242H11.5152H11.6065H11.6981H11.79H11.8821H11.9746H12.0673H12.1603H12.2535H12.347H12.4408H12.5349H12.6292H12.7238H12.8186H12.9137H13.0091H13.1047H13.2006H13.2967H13.3931H13.4897H13.5866H13.6837H13.781H13.8786H13.9764H14.0745H14.1728H14.2713H14.37H14.469H14.5682H14.6676H14.7673H14.8671H14.9672H15.0675H15.168H15.2688H15.3697H15.4708H15.5722H15.6737H15.7755H15.8774H15.9796H16.0819H16.1845H16.2872H16.3901H16.4932H16.5965H16.7H16.8037H16.9075H17.0115H17.1157H17.2201H17.3247H17.4294H17.5342H17.6393H17.7445H17.8499H17.9554H18.0611H18.167H18.273H18.3791H18.4854H18.5919H18.6985H18.8052H18.9121H19.0191H19.1263H19.2336H19.3411H19.4486H19.5563H19.6642H19.7721H19.8802H19.9884H20.0968H20.2052H20.3138H20.4224H20.5312H20.6401H20.7492H20.8583H20.9675H21.0768H21.1863H21.2958H21.4054H21.5152H21.625H21.7349H21.8449H21.955H22.0651H22.1754H22.2857H22.3961H22.5066H22.6172H22.7279H22.8386H22.9494H23.0602H23.1711H23.2821H23.3932H23.5043H23.6154H23.7266H23.8379H23.9492H24.0606H24.1721H24.2835H24.395H24.5066H24.6182H24.7298H24.8415H24.9532H25.065H25.1767H25.2885H25.4004H25.5122H25.6241H25.736H25.8479H25.9598H26.0718H26.1837H26.2957H26.4077H26.5197H26.6316H26.7436H26.8556H26.9676H27.0796H27.1916H27.3036H27.4155H27.5275H27.6395H27.7514H27.8633H27.9752H28.0871H28.1989H28.3108H28.4226H28.5343H28.6461H28.7578H28.8695H28.9811H29.0927H29.2043H29.3158H29.4273H29.5387H29.6501H29.7614H29.8727H29.9839H30.0951H30.2062H30.3172H30.4282H30.5392H30.65H30.7608H30.8715H30.9822H31.0928H31.2033H31.3137H31.424H31.5343H31.6445H31.7546H31.8646H31.9745H32.0843H32.194H32.3037H32.4132H32.5227H32.632H32.7412H32.8504H32.9594H33.0683H33.1771H33.2858H33.3944H33.5028H33.6112H33.7194H33.8275H33.9355H34.0433H34.151H34.2586H34.3661H34.4734H34.5806H34.6876H34.7945H34.9013H35.0079H35.1143H35.2207H35.3268H35.4329H35.5387H35.6444H35.75H35.8554H35.9606H36.0656H36.1705H36.2753H36.3798H36.4842H36.5884H36.6925H36.7963H36.9H37.0035H37.1068H37.2099H37.3129H37.4156H37.5182H37.6205H37.7227H37.8247H37.9264H38.028H38.1294H38.2305H38.3315H38.4322H38.5328H38.6331H38.7332H38.8331H38.9327H39.0322H39.1314H39.2304H39.3292H39.4277H39.526H39.6241H39.722H39.8196H39.9169H40.0141H40.1109H40.2076H40.304H40.4001H40.496H40.5916H40.687H40.7822H40.877H40.9716H41.066H41.1601H41.2539H41.3474H41.4407H41.5337H41.6264H41.7189H41.8111H41.903H41.9946H42.0859H42.1769H42.2677H42.3582H42.4483H42.5382H42.6278H42.7171H42.8061H42.8948H42.9831H43.0712H43.159H43.2464H43.3336H43.4204H43.5069H43.5931H43.679H43.7646H43.8498H43.9347H44.0193H44.1035H44.1874H44.271H44.3543H44.4372H44.5198H44.602H44.6839H44.7654H44.8466H44.9275H45.008H45.0881H45.1679H45.2474H45.3264H45.4051H45.4835H45.5615H45.6391H45.7164H45.7932H45.8697H45.9459H46.0216H46.097H46.172H46.2466H46.3209H46.3947H46.4681H46.5412H46.6139H46.6862H46.758H46.8295H46.9006H46.9713H47.0416H47.1114H47.1809H47.25H47.3186H47.3868H47.4546H47.522H47.589H47.6556H47.7217H47.7874H47.8527H47.9175H47.9819H48.0459H48.1094H48.1726H48.2352H48.2974H48.3592H48.4206H48.4815H48.5419H48.6019H48.6614H48.7205H48.7791H48.8373H48.895H48.9522H49.009H49.0653H49.1211H49.1765H49.2314H49.2858H49.3398H49.3932H49.4462H49.4987H49.5507H49.6023H49.6533H49.7038H49.7539H49.8035H49.8525H49.9011H49.9492H49.9967H50.0438H50.0903H50.1364H50.1819H50.2269H50.2714H50.3154H50.3589H50.4019H50.4443H50.4862H50.5276H50.5684H50.6087H50.6485H50.6878H50.7265H50.7647H50.8023H50.8394H50.876H50.912H50.9475H50.9824H51.0168H51.0506H51.0838H51.1165H51.1487H51.1802H51.2112H51.2417H51.2716H51.3009H51.3296H51.3578H51.3854H51.4124H51.4388H51.4647H51.4899H51.5V93.716C44.165 98.0616 37.0893 99.7441 30.1425 99.5003C23.2047 99.2569 16.3666 97.0911 9.49994 93.6903V25.5Z" fill="#EDE9E9" stroke="black"/>
<rect x="12.966" y="76.2468" width="14" height="18" transform="rotate(-18.8647 12.966 76.2468)" fill="#C4C4C4" stroke="#6D6A6A"/>
<path d="M33.5 76.5H46.5V88.5H33.5V76.5Z" fill="#C4C4C4" stroke="#595656"/>
<rect x="11.692" y="58.4389" width="16" height="14" transform="rotate(-33.1396 11.692 58.4389)" fill="#C4C4C4" stroke="#999696"/>
<rect x="29.6541" y="43.8243" width="16" height="17" transform="rotate(-22.6831 29.6541 43.8243)" fill="#C4C4C4" stroke="#978E8E"/>
<rect x="44.9078" y="0.626877" width="6" height="71" transform="rotate(17.4414 44.9078 0.626877)" fill="#C4C4C4" stroke="black"/>
<rect x="16.5" y="30.5" width="16" height="18" fill="#C4C4C4" stroke="#827F7F"/>
<rect x="30.5" y="60.5" width="16" height="15" fill="#C4C4C4" stroke="#3F3D3D"/>
</svg>
